inDegrees=no
num_controls=7
num_derivatives=13
num_iterations=144
num_multipliers=7
num_parameters=0
num_slacks=7
num_states=26
objective=0.448411
objective_accelerations=0.048781
objective_balance=0.007394
objective_effort=0.036334
objective_height=0.350961
objective_ligament=0.004941
solver_duration=2065.304911
status=Solve_Succeeded
success=true
DataType=double
version=3
OpenSimVersion=4.5
endheader
time	/jointset/ground_pelvis/pelvis_tilt/value	/jointset/ground_pelvis/pelvis_tx/value	/jointset/ground_pelvis/pelvis_ty/value	/jointset/hip_l/hip_flexion_l/value	/jointset/hip_l/hip_adduction_l/value	/jointset/hip_l/hip_rotation_l/value	/jointset/back/lumbar_extension/value	/jointset/patellofemoral_l/patellar_flexion_l/value	/jointset/knee_l/knee_flexion_l/value	/jointset/knee_l/knee_adduction_l/value	/jointset/knee_l/knee_rotation_l/value	/jointset/ankle_l/ankle_angle_l/value	/jointset/subtalar_l/subtalar_angle_l/value	/jointset/ground_pelvis/pelvis_tilt/speed	/jointset/ground_pelvis/pelvis_tx/speed	/jointset/ground_pelvis/pelvis_ty/speed	/jointset/hip_l/hip_flexion_l/speed	/jointset/hip_l/hip_adduction_l/speed	/jointset/hip_l/hip_rotation_l/speed	/jointset/back/lumbar_extension/speed	/jointset/patellofemoral_l/patellar_flexion_l/speed	/jointset/knee_l/knee_flexion_l/speed	/jointset/knee_l/knee_adduction_l/speed	/jointset/knee_l/knee_rotation_l/speed	/jointset/ankle_l/ankle_angle_l/speed	/jointset/subtalar_l/subtalar_angle_l/speed	/forceset/tau_hip_flexion_l	/forceset/tau_hip_adduction_l	/forceset/tau_hip_rotation_l	/forceset/tau_knee_flexion_l	/forceset/tau_ankle_angle_l	/forceset/tau_subtalar_angle_l	/forceset/tau_lumbar_extension	lambda_cid13_p0	lambda_cid13_p1	lambda_cid13_p2	lambda_cid13_p3	lambda_cid13_p4	lambda_cid13_p5	lambda_cid14_p0	/jointset/ground_pelvis/pelvis_tilt/accel	/jointset/ground_pelvis/pelvis_tx/accel	/jointset/ground_pelvis/pelvis_ty/accel	/jointset/hip_l/hip_flexion_l/accel	/jointset/hip_l/hip_adduction_l/accel	/jointset/hip_l/hip_rotation_l/accel	/jointset/back/lumbar_extension/accel	/jointset/patellofemoral_l/patellar_flexion_l/accel	/jointset/knee_l/knee_flexion_l/accel	/jointset/knee_l/knee_adduction_l/accel	/jointset/knee_l/knee_rotation_l/accel	/jointset/ankle_l/ankle_angle_l/accel	/jointset/subtalar_l/subtalar_angle_l/accel	gamma_cid13_p0	gamma_cid13_p1	gamma_cid13_p2	gamma_cid13_p3	gamma_cid13_p4	gamma_cid13_p5	gamma_cid14_p0
0.5	-0.4428178919392343	-0.07281155956922725	0.765823963259412	1.251976195141282	-0.3098094856137417	-0.04977721398475834	-0.3284664861666933	0.6782502027953715	0.67825020279532	-0.1736528385978458	0.1743434074605066	0.03444948698896793	-0.04952934938514442	-0.7363736596117528	-0.2697926523159898	-0.4876494800974841	2.351150006476035	-0.03567452162566782	0.6094733541716284	-0.6233360910829819	1.75430285703498	1.754302857035142	-0.004299073027875781	0.002345418227611476	0.2322267719350629	-0.0105209789923447	-0.2416314901797998	0.01482809270064754	-0.02139340678089122	-0.2031499138225139	0.1428206596267451	0.04430056994740619	0.2178775578480278	7.131291378973561	-23.27899212399455	6.496445048440246	-5.395208703025516	-606.8244925446742	-61.51306159026615	-28.91749592412789	0.5911876608879311	0.6822080635547851	-0.3224388121767219	-1.453649269429713	0.5879068431155198	-0.2693837918939644	1.718849905714572	-1.044619805007829	-1.044619805007774	0.02701403103576135	-0.0381966686862347	-0.1166195058238195	0.5683374184015255	-2.337148218681058e-07	-8.730177119039588e-07	1.167015828157571e-06	3.182493019146456e-08	-3.373194273933268e-07	6.923643850838737e-09	-2.853709721600435e-07
0.51	-0.4501504354693541	-0.0754750455836507	0.7609323843726881	1.275410750747912	-0.3101382886444343	-0.04369629877094054	-0.3346138462659747	0.6957381757847524	0.695738175784813	-0.1736972632709945	0.1743655901308404	0.0367649867783735	-0.04960772539388006	-0.7300377840141168	-0.2628801063073588	-0.4905661101201717	2.335449814789389	-0.03009549473573901	0.606609409251624	-0.6060603963916857	1.743057666050937	1.743057666051006	-0.004564153421138219	0.002109399230994917	0.2308281694247846	-0.005164132990401178	-0.2498477144115027	0.01551100109243358	-0.02149556467789063	-0.2042774009409799	0.1425384738170057	0.04489921749888687	0.2242472684937219	6.798649113931127	-23.37543284640729	6.391532156986746	-5.339731473889768	-611.3190802911448	-61.1258441262702	-27.90907692328341	0.6693402007528851	0.6994614485181917	-0.2613206264578554	-1.67494400584243	0.5413974102932886	-0.3102278013072219	1.743259108065427	-1.199517472213295	-1.19951747222737	-0.05007511445697858	-0.0138755148637066	-0.1582355210658005	0.5178262325325	-2.91171312511424e-07	-7.070190046472662e-07	1.442479645755518e-06	9.66544102596304e-08	-3.645016853947491e-07	6.125671816790128e-08	-3.103251635439034e-07
0.52	-0.4574167097051864	-0.07806866942218765	0.7560146300799084	1.298678956460163	-0.3104116020465551	-0.03764708859817282	-0.3405861834468975	0.7131066871188737	0.71310668711904	-0.1737436999560736	0.1743858984112574	0.03906514956318931	-0.04963283933430791	-0.7231198007544264	-0.2558202171386908	-0.4928845613085873	2.317880027600324	-0.02457659591134211	0.6031323459614795	-0.5883315074112595	1.73041052598246	1.730410525982434	-0.004701475412388699	0.001970540245805876	0.229159371017068	0.0001314346692121878	-0.2580639386432093	0.01619390948422296	-0.02159772257495915	-0.2054048880594353	0.1422562880072689	0.04549786505037121	0.2306169791394107	6.461052197351447	-23.47460663926976	6.291168463770165	-5.294401979714277	-615.9072184241764	-60.81582888134459	-26.89258685220815	0.7076091932987749	0.711676695562232	-0.2028030453223356	-1.82756836991369	0.5758812300091348	-0.392007465921927	1.809488763540533	-1.325009621895008	-1.325009621894955	0.05256571143815211	-0.01876466640073483	-0.1706586853114616	0.5560817499354986	-2.992178812291637e-07	-6.036627952009743e-07	1.48813037031754e-06	1.208094994420124e-07	-3.574516219959926e-07	1.014659315802956e-07	-3.060172731352012e-07
0.53	-0.4646110440077362	-0.08059103844504478	0.7510767067594687	1.321762340879348	-0.3106300688456947	-0.03163505670309198	-0.3463790545060341	0.7303416996400917	0.7303416996402238	-0.1737911878355018	0.1744047925574577	0.04134727143010852	-0.04960535433883317	-0.7156556562282785	-0.248635847850226	-0.4945968675302168	2.298493542240634	-0.01913687447633917	0.5992010973427616	-0.570183708863116	1.716358552142288	1.716358552142284	-0.004799958654326258	0.001808284686652863	0.2272194166911465	0.00534431855174197	-0.2660944377160901	0.0166435114347411	-0.02168101475102195	-0.2066958714795941	0.1421150607513734	0.04591663702949561	0.2367960713926846	6.163570750857586	-23.50444498463426	6.181761051623718	-5.220999680895726	-620.4736683487948	-60.41869153344378	-25.87622760293961	0.7794910811383594	0.7245046822921113	-0.1400298729199155	-2.039730526676519	0.5248687529485161	-0.4048943921431339	1.82627473338292	-1.480244432020647	-1.480244432017437	-0.04166057992537945	-0.01528003740917637	-0.2124997832660202	0.500615769208883	-2.844229939025901e-07	-5.347586749706646e-07	1.426531791584349e-06	1.209358994073856e-07	-3.321999187636774e-07	1.259511417021922e-07	-2.891425613239221e-07
0.54	-0.4717280020652505	-0.08304102624765654	0.7461247432843454	1.3446427520634	-0.3107947681999437	-0.02566457946065743	-0.351988677713103	0.7474292017895212	0.7474292017896166	-0.1738397815949361	0.1744219993407151	0.04360862655836191	-0.04952639569217369	-0.7076445517475111	-0.241343973089621	-0.495692592245317	2.277285380573746	-0.01382310693323066	0.5948214154321873	-0.5516819369977068	1.700908451624421	1.700908451624438	-0.004922651412889974	0.001633067658036975	0.225006023283884	0.01042616490615864	-0.2741249367889756	0.01709311338525984	-0.02176430692712349	-0.2079868548997474	0.1419738334954795	0.04633540900862117	0.2429751636459535	5.862383085981373	-23.53724392601212	6.076949388916643	-5.167049414623001	-625.1194647419338	-60.09591829343944	-24.86056453185546	0.817001184222661	0.7331777899902971	-0.07948674401648009	-2.191903631353398	0.5506904516302477	-0.4816941242932453	1.88028342699364	-1.604634957434049	-1.604634957434121	0.04772380811291992	-0.0213569602933126	-0.2253465015796693	0.52987424431288	-2.443567083993292e-07	-5.03971759830378e-07	1.246274409205389e-06	9.447736662202556e-08	-2.868102310346591e-07	1.330395822260911e-07	-2.583641322161748e-07
0.55	-0.4787622653881775	-0.08541764001093079	0.7411648977341919	1.367302363883131	-0.3109067474309705	-0.01974046877621585	-0.3574115806779885	0.7643555361209222	0.7643555361210619	-0.173889013751316	0.1744375620774246	0.04584664099906819	-0.04939703252340849	-0.6991236208753669	-0.2339681230468545	-0.4961724281170893	2.254349335962485	-0.0085955758141709	0.5899248439931309	-0.5328553663781735	1.684136964025643	1.684136964025652	-0.004920409593038767	0.001481263119764311	0.2225552537753272	0.01542280299759748	-0.2819333920323369	0.01737879146091278	-0.02182337803800672	-0.2093477507371281	0.1418706324422219	0.04656854440446467	0.2489251614827252	5.573751767066368	-23.49280831143958	5.961181724214988	-5.062689596427258	-629.6520487865463	-59.66505112931123	-23.84623907797139	0.8822843826119202	0.7414030982841667	-0.01667096895237371	-2.387636437927328	0.505264990344509	-0.5052361242351648	1.890337319604648	-1.746574940452575	-1.746574940453877	-0.02305826752780377	-0.01207549975929591	-0.2611822225850983	0.4809519517512144	-2.136160417572076e-07	-4.630930778411948e-07	1.112756159065129e-06	7.646745439000177e-08	-2.492693594261108e-07	1.423094041679096e-07	-2.334388695082243e-07
0.5600000000000001	-0.4857087903336017	-0.08772017237640453	0.7362033660332816	1.389723978944367	-0.3109671552411463	-0.01386764330027094	-0.3626449192486443	0.7811075217204658	0.7811075217206486	-0.1739381300167885	0.1744516101089163	0.04805889973527053	-0.04921842430169054	-0.6900968762471597	-0.2265276935295144	-0.4960298223966554	2.229686028874625	-0.003508822763083386	0.5845643737331404	-0.513769058151782	1.666038705252748	1.666038705252748	-0.004899473231148589	0.001330126614890134	0.2198548823831139	0.02027517549670952	-0.2897418472757041	0.01766446953656189	-0.02188244914889985	-0.210708646574508	0.1417674313889638	0.04680167980030407	0.2548751593194918	5.279865940877992	-23.45026280201868	5.848925831545578	-4.967775161352116	-634.2831894647288	-59.29799849349483	-22.83421582711731	0.9181639354352826	0.7460936849050143	0.04500157442476712	-2.53735612667333	0.5225348380358009	-0.5744738884801026	1.932230948365282	-1.869989192257466	-1.86998919225742	0.05146271652071351	-0.02122335361361762	-0.2752668783109566	0.5010211258475221	-1.940661177484529e-07	-4.101042756333362e-07	1.035324867611306e-06	6.85958868219812e-08	-2.211470671621263e-07	1.541968838112315e-07	-2.155374064800299e-07
0.5700000000000001	-0.492562650360071	-0.08994805534820904	0.7312463568907408	1.411890644963383	-0.3109773102963625	-0.0080507268483614	-0.3676861899426561	0.7976721133875446	0.7976721133875831	-0.1739866756645736	0.1744641141497061	0.0502430059945118	-0.04899191205426808	-0.6805969761961883	-0.2190451065152685	-0.4952681481411771	2.203374182638101	0.001448330396831879	0.578746335425889	-0.4944585596548484	1.646668736992267	1.646668736992262	-0.004811340774526807	0.00117359635435233	0.2169270097031929	0.02499658573220016	-0.2972814793693871	0.01777359950988945	-0.02191694995117512	-0.212084551102635	0.1416527505274679	0.04690074811590045	0.2605555106066223	4.989101449205949	-23.35083135359258	5.728505864299127	-4.820631042466297	-638.7220829487918	-58.85856145385025	-21.8256058867955	0.9776018200944951	0.749923185774389	0.1072879987602908	-2.719076572794122	0.4777954827939024	-0.5965370501264228	1.934437449708401	-2.002093236289252	-2.002093236290182	-0.01279415774254341	-0.01264682514521096	-0.30744794257167	0.4530420827982413	-1.75047987318057e-07	-3.586298358558629e-07	9.588316586385691e-07	6.131208121753401e-08	-1.9461962546401e-07	1.631390187330271e-07	-1.977408418430495e-07
